<svg xmlns="http://www.w3.org/2000/svg" width="774" height="782" viewBox="0 0 774 782" version="1.1">
	<path d="M 0 391.001 L 0 782.003 387.250 781.751 L 774.500 781.500 774.552 390.500 C 774.581 175.450, 774.448 2.762, 774.258 6.750 C 774.068 10.738, 773.482 14, 772.956 14 C 772.430 14, 772 12.875, 772 11.500 C 772 10.125, 771.581 9, 771.070 9 C 770.558 9, 769.995 7.988, 769.820 6.750 C 769.614 5.304, 768.696 4.386, 767.250 4.180 C 765.804 3.975, 765 3.171, 765 1.930 C 765 0.062, 763.933 -0, 731.672 -0 L 698.343 -0 593.422 104.270 C 475.477 221.482, 429.525 266.898, 423.156 272.549 L 418.812 276.402 416.928 273.951 C 415.892 272.603, 415.034 270.890, 415.022 270.144 C 415.010 269.398, 413.875 267.903, 412.500 266.821 C 411.125 265.740, 410 264.260, 410 263.532 C 410 262.805, 408.883 261.150, 407.517 259.855 C 406.152 258.560, 405.027 256.959, 405.017 256.297 C 404.982 253.817, 402.690 250.152, 400.878 249.678 C 399.836 249.406, 399 248.303, 399 247.201 C 399 246.108, 398.325 244.955, 397.500 244.638 C 396.675 244.322, 396 243.225, 396 242.200 C 396 241.176, 394.875 239.736, 393.500 239 C 392.023 238.210, 391 236.782, 391 235.511 C 391 234.328, 389.875 232.382, 388.500 231.187 C 387.125 229.991, 386 228.335, 386 227.507 C 386 226.678, 385.626 226, 385.169 226 C 384.712 226, 383.709 224.762, 382.939 223.250 C 382.170 221.738, 380.519 219.108, 379.270 217.406 C 378.022 215.704, 377 213.968, 377 213.550 C 377 213.131, 375.875 211.903, 374.500 210.821 C 373.125 209.740, 372 208.182, 372 207.360 C 372 206.538, 369.975 203.379, 367.500 200.341 C 365.025 197.303, 363 194.230, 363 193.513 C 363 192.796, 361.883 191.150, 360.517 189.855 C 359.152 188.560, 358.027 186.488, 358.017 185.250 C 358.008 184.013, 357.474 183.113, 356.832 183.250 C 356.189 183.388, 355.122 182.460, 354.459 181.189 C 353.797 179.918, 352.298 177.777, 351.127 176.432 C 349.957 175.086, 349 173.136, 349 172.099 C 349 171.062, 348.379 169.976, 347.619 169.684 C 346.860 169.393, 344.524 166.307, 342.428 162.827 C 340.332 159.347, 337.803 155.772, 336.809 154.883 C 335.814 153.993, 335 152.779, 335 152.184 C 335 151.590, 333.875 149.889, 332.500 148.405 C 331.125 146.922, 330 144.889, 330 143.889 C 330 142.889, 329.105 141.592, 328.012 141.006 C 326.918 140.421, 325.766 138.917, 325.452 137.663 C 325.137 136.410, 323.782 134.560, 322.440 133.552 C 321.098 132.544, 320 130.953, 320 130.015 C 320 129.077, 319.100 127.495, 318 126.500 C 316.900 125.505, 316 124.197, 315.999 123.595 C 315.999 122.993, 313.974 119.921, 311.499 116.769 C 309.025 113.616, 307 110.756, 307 110.413 C 307 110.069, 305.710 108.148, 304.134 106.144 C 302.557 104.140, 300.965 101.529, 300.595 100.342 C 300.226 99.156, 299.266 97.932, 298.462 97.624 C 297.658 97.315, 297 96.452, 297 95.706 C 297 94.959, 295.875 93.292, 294.500 92 C 293.125 90.708, 292 89.221, 292 88.695 C 292 88.169, 290.425 85.547, 288.500 82.867 C 286.575 80.188, 285 77.527, 285 76.955 C 285 75.765, 283.484 73.784, 280.250 70.750 C 279.012 69.589, 278 68.292, 278 67.868 C 278 67.443, 275.975 64.199, 273.500 60.659 C 271.025 57.118, 269 53.721, 269 53.111 C 269 52.500, 268.325 52, 267.500 52 C 266.675 52, 266 51.351, 266 50.557 C 266 48.704, 262.063 42, 260.974 42 C 260.519 42, 259.521 40.763, 258.757 39.250 C 256.051 33.892, 254.473 31.481, 252.250 29.301 C 251.012 28.088, 250 26.399, 250 25.548 C 250 24.696, 249.571 24, 249.047 24 C 248.523 24, 247.398 22.537, 246.548 20.750 C 245.698 18.962, 243.834 16.150, 242.405 14.500 C 240.976 12.850, 238.961 9.925, 237.926 8 C 236.892 6.075, 235.176 3.488, 234.112 2.250 L 232.179 0 116.090 0 L 0 0 0 391.001 M 0.495 391.500 C 0.495 606.550, 0.610 694.674, 0.750 587.331 C 0.890 479.989, 0.890 304.039, 0.750 196.331 C 0.610 88.624, 0.495 176.450, 0.495 391.500" stroke="none" fill="black" fill-rule="evenodd"/>
</svg>